<mxfile host="app.diagrams.net" modified="2023-04-08T11:25:22.018Z" agent="Mozilla/5.0 (Windows NT 10.0; Win64; x64) AppleWebKit/537.36 (KHTML, like Gecko) Chrome/111.0.0.0 Safari/537.36" etag="qvczkzekQqqokPJEQM-3" version="21.1.5" type="device">
  <diagram name="Page-1" id="RE12anCZ49g3o0ScSHwa">
    <mxGraphModel dx="1050" dy="541" grid="1" gridSize="10" guides="1" tooltips="1" connect="1" arrows="1" fold="1" page="1" pageScale="1" pageWidth="850" pageHeight="1100" math="0" shadow="0">
      <root>
        <mxCell id="0" />
        <mxCell id="1" parent="0" />
        <mxCell id="4tLAswlF-10ABZHyxMMM-1" value="" style="rounded=1;whiteSpace=wrap;html=1;fillColor=none;" parent="1" vertex="1">
          <mxGeometry x="150" y="50" width="520" height="460" as="geometry" />
        </mxCell>
        <mxCell id="4tLAswlF-10ABZHyxMMM-2" value="Client" style="shape=umlActor;verticalLabelPosition=bottom;verticalAlign=top;html=1;outlineConnect=0;" parent="1" vertex="1">
          <mxGeometry x="50" y="250" width="30" height="60" as="geometry" />
        </mxCell>
        <mxCell id="4tLAswlF-10ABZHyxMMM-6" value="&lt;font style=&quot;font-size: 10px;&quot;&gt;Register Account&lt;/font&gt;" style="ellipse;whiteSpace=wrap;html=1;fillColor=none;" parent="1" vertex="1">
          <mxGeometry x="365" y="80" width="110" height="40" as="geometry" />
        </mxCell>
        <mxCell id="4tLAswlF-10ABZHyxMMM-7" value="&lt;font style=&quot;font-size: 10px;&quot;&gt;Login Account&lt;/font&gt;" style="ellipse;whiteSpace=wrap;html=1;fillColor=none;" parent="1" vertex="1">
          <mxGeometry x="270" y="200" width="110" height="40" as="geometry" />
        </mxCell>
        <mxCell id="4tLAswlF-10ABZHyxMMM-8" value="&lt;font style=&quot;font-size: 10px;&quot;&gt;Update Account Data&lt;/font&gt;" style="ellipse;whiteSpace=wrap;html=1;fillColor=none;" parent="1" vertex="1">
          <mxGeometry x="280" y="360" width="110" height="40" as="geometry" />
        </mxCell>
        <mxCell id="4tLAswlF-10ABZHyxMMM-9" value="&lt;font style=&quot;font-size: 10px;&quot;&gt;Delete Account&lt;/font&gt;" style="ellipse;whiteSpace=wrap;html=1;fillColor=none;" parent="1" vertex="1">
          <mxGeometry x="380" y="440" width="110" height="40" as="geometry" />
        </mxCell>
        <mxCell id="4tLAswlF-10ABZHyxMMM-10" value="Admin" style="shape=umlActor;verticalLabelPosition=bottom;verticalAlign=top;html=1;outlineConnect=0;" parent="1" vertex="1">
          <mxGeometry x="760" y="250" width="30" height="60" as="geometry" />
        </mxCell>
        <mxCell id="4tLAswlF-10ABZHyxMMM-14" value="" style="endArrow=classic;html=1;rounded=0;exitX=0.5;exitY=0.5;exitDx=0;exitDy=0;exitPerimeter=0;entryX=0;entryY=0.5;entryDx=0;entryDy=0;" parent="1" source="4tLAswlF-10ABZHyxMMM-2" target="4tLAswlF-10ABZHyxMMM-6" edge="1">
          <mxGeometry width="50" height="50" relative="1" as="geometry">
            <mxPoint x="400" y="310" as="sourcePoint" />
            <mxPoint x="450" y="260" as="targetPoint" />
          </mxGeometry>
        </mxCell>
        <mxCell id="4tLAswlF-10ABZHyxMMM-15" value="" style="endArrow=classic;html=1;rounded=0;exitX=0.5;exitY=0.5;exitDx=0;exitDy=0;exitPerimeter=0;entryX=0;entryY=0.5;entryDx=0;entryDy=0;" parent="1" source="4tLAswlF-10ABZHyxMMM-2" target="4tLAswlF-10ABZHyxMMM-7" edge="1">
          <mxGeometry width="50" height="50" relative="1" as="geometry">
            <mxPoint x="85" y="190" as="sourcePoint" />
            <mxPoint x="330" y="140" as="targetPoint" />
          </mxGeometry>
        </mxCell>
        <mxCell id="4tLAswlF-10ABZHyxMMM-16" value="" style="endArrow=classic;html=1;rounded=0;exitX=0.5;exitY=0.5;exitDx=0;exitDy=0;exitPerimeter=0;entryX=1;entryY=0.5;entryDx=0;entryDy=0;" parent="1" source="4tLAswlF-10ABZHyxMMM-10" target="4tLAswlF-10ABZHyxMMM-9" edge="1">
          <mxGeometry width="50" height="50" relative="1" as="geometry">
            <mxPoint x="400" y="310" as="sourcePoint" />
            <mxPoint x="450" y="260" as="targetPoint" />
          </mxGeometry>
        </mxCell>
        <mxCell id="4tLAswlF-10ABZHyxMMM-17" value="" style="endArrow=classic;html=1;rounded=0;exitX=0.5;exitY=0.5;exitDx=0;exitDy=0;exitPerimeter=0;entryX=0;entryY=0.5;entryDx=0;entryDy=0;" parent="1" source="4tLAswlF-10ABZHyxMMM-2" target="4tLAswlF-10ABZHyxMMM-8" edge="1">
          <mxGeometry width="50" height="50" relative="1" as="geometry">
            <mxPoint x="300" y="280" as="sourcePoint" />
            <mxPoint x="350" y="230" as="targetPoint" />
          </mxGeometry>
        </mxCell>
        <mxCell id="4tLAswlF-10ABZHyxMMM-18" value="" style="endArrow=classic;html=1;rounded=0;exitX=0.5;exitY=0.5;exitDx=0;exitDy=0;exitPerimeter=0;entryX=1;entryY=0.5;entryDx=0;entryDy=0;" parent="1" source="4tLAswlF-10ABZHyxMMM-10" target="4tLAswlF-10ABZHyxMMM-6" edge="1">
          <mxGeometry width="50" height="50" relative="1" as="geometry">
            <mxPoint x="400" y="310" as="sourcePoint" />
            <mxPoint x="450" y="260" as="targetPoint" />
          </mxGeometry>
        </mxCell>
        <mxCell id="4tLAswlF-10ABZHyxMMM-19" value="" style="endArrow=classic;html=1;rounded=0;exitX=0.5;exitY=0.5;exitDx=0;exitDy=0;exitPerimeter=0;entryX=1;entryY=0.5;entryDx=0;entryDy=0;" parent="1" source="4tLAswlF-10ABZHyxMMM-10" target="4tLAswlF-10ABZHyxMMM-7" edge="1">
          <mxGeometry width="50" height="50" relative="1" as="geometry">
            <mxPoint x="400" y="310" as="sourcePoint" />
            <mxPoint x="450" y="260" as="targetPoint" />
          </mxGeometry>
        </mxCell>
        <mxCell id="4tLAswlF-10ABZHyxMMM-20" value="" style="endArrow=classic;html=1;rounded=0;exitX=0.5;exitY=0.5;exitDx=0;exitDy=0;exitPerimeter=0;entryX=1;entryY=0.5;entryDx=0;entryDy=0;" parent="1" source="4tLAswlF-10ABZHyxMMM-10" target="4tLAswlF-10ABZHyxMMM-8" edge="1">
          <mxGeometry width="50" height="50" relative="1" as="geometry">
            <mxPoint x="210" y="350" as="sourcePoint" />
            <mxPoint x="260" y="300" as="targetPoint" />
          </mxGeometry>
        </mxCell>
        <mxCell id="v5Xwme7vcvvYe1HnX-qm-1" value="&lt;font style=&quot;font-size: 9px;&quot;&gt;&amp;lt;&amp;lt;include&amp;gt;&amp;gt;&lt;/font&gt;" style="endArrow=classic;html=1;rounded=0;exitX=0.5;exitY=1;exitDx=0;exitDy=0;entryX=0;entryY=0;entryDx=0;entryDy=0;dashed=1;" edge="1" parent="1" source="4tLAswlF-10ABZHyxMMM-6" target="v5Xwme7vcvvYe1HnX-qm-2">
          <mxGeometry width="50" height="50" relative="1" as="geometry">
            <mxPoint x="480" y="180" as="sourcePoint" />
            <mxPoint x="550" y="140" as="targetPoint" />
          </mxGeometry>
        </mxCell>
        <mxCell id="v5Xwme7vcvvYe1HnX-qm-2" value="&lt;font style=&quot;font-size: 10px;&quot;&gt;Check Data&lt;/font&gt;" style="ellipse;whiteSpace=wrap;html=1;fillColor=none;" vertex="1" parent="1">
          <mxGeometry x="450" y="170" width="110" height="40" as="geometry" />
        </mxCell>
        <mxCell id="v5Xwme7vcvvYe1HnX-qm-6" value="&lt;font style=&quot;font-size: 10px;&quot;&gt;Check Account Exists&lt;/font&gt;" style="ellipse;whiteSpace=wrap;html=1;fillColor=none;" vertex="1" parent="1">
          <mxGeometry x="400" y="270" width="110" height="40" as="geometry" />
        </mxCell>
        <mxCell id="v5Xwme7vcvvYe1HnX-qm-8" value="&lt;font style=&quot;font-size: 9px;&quot;&gt;&amp;lt;&amp;lt;include&amp;gt;&amp;gt;&lt;/font&gt;" style="endArrow=classic;html=1;rounded=0;exitX=1;exitY=1;exitDx=0;exitDy=0;entryX=0;entryY=0;entryDx=0;entryDy=0;dashed=1;" edge="1" parent="1" source="4tLAswlF-10ABZHyxMMM-7" target="v5Xwme7vcvvYe1HnX-qm-6">
          <mxGeometry width="50" height="50" relative="1" as="geometry">
            <mxPoint x="430" y="120" as="sourcePoint" />
            <mxPoint x="515" y="170" as="targetPoint" />
          </mxGeometry>
        </mxCell>
        <mxCell id="v5Xwme7vcvvYe1HnX-qm-9" value="&lt;font style=&quot;font-size: 9px;&quot;&gt;&amp;lt;&amp;lt;include&amp;gt;&amp;gt;&lt;/font&gt;" style="endArrow=classic;html=1;rounded=0;exitX=1;exitY=0;exitDx=0;exitDy=0;entryX=0;entryY=1;entryDx=0;entryDy=0;dashed=1;" edge="1" parent="1" source="4tLAswlF-10ABZHyxMMM-8" target="v5Xwme7vcvvYe1HnX-qm-6">
          <mxGeometry width="50" height="50" relative="1" as="geometry">
            <mxPoint x="374" y="234" as="sourcePoint" />
            <mxPoint x="426" y="276" as="targetPoint" />
          </mxGeometry>
        </mxCell>
      </root>
    </mxGraphModel>
  </diagram>
</mxfile>
